<svg width="36" height="37" viewBox="0 0 36 37" fill="none" xmlns="http://www.w3.org/2000/svg">
<path d="M11.7045 9.24243C12.588 9.24243 13.383 9.31893 14.112 9.47493C14.8365 9.62943 15.4545 9.88443 15.9765 10.2369C16.491 10.5894 16.893 11.0574 17.1825 11.6454C17.463 12.2259 17.6025 12.9519 17.6025 13.8099C17.6025 14.7399 17.3925 15.5169 16.971 16.1364C16.5465 16.7574 15.921 17.2659 15.087 17.6589C16.2225 17.9874 17.064 18.5619 17.622 19.3779C18.183 20.2014 18.4575 21.1869 18.4575 22.3419C18.4575 23.2794 18.279 24.0849 17.9205 24.7614C17.575 25.4279 17.0738 26.0011 16.4595 26.4324C15.8232 26.8756 15.1124 27.2007 14.361 27.3924C13.5732 27.5992 12.762 27.7031 11.9475 27.7014H3V9.24243H11.7045ZM11.178 16.7004C11.898 16.7004 12.495 16.5294 12.966 16.1829C13.434 15.8409 13.6605 15.2769 13.6605 14.5044C13.6605 14.0754 13.584 13.7214 13.434 13.4439C13.2879 13.177 13.0716 12.955 12.8085 12.8019C12.5331 12.6386 12.2292 12.5292 11.913 12.4794C11.5683 12.4151 11.2181 12.3845 10.8675 12.3879H7.065V16.7004H11.178ZM11.4045 24.5589C11.805 24.5589 12.186 24.5244 12.5445 24.4434C12.906 24.3654 13.227 24.2394 13.5 24.0519C13.773 23.8719 13.998 23.6274 14.16 23.3154C14.3235 23.0064 14.403 22.6029 14.403 22.1184C14.403 21.1674 14.1345 20.4909 13.6035 20.0814C13.071 19.6764 12.357 19.4754 11.4825 19.4754H7.065V24.5604H11.4045V24.5589ZM24.252 24.4974C24.8025 25.0344 25.596 25.3044 26.628 25.3044C27.3675 25.3044 28.0065 25.1169 28.545 24.7449C29.076 24.3714 29.4 23.9724 29.5245 23.5599H32.757C32.238 25.1679 31.4505 26.3169 30.3735 27.0084C29.31 27.7029 28.0155 28.0479 26.5035 28.0479C25.4505 28.0479 24.5025 27.8784 23.6535 27.5424C22.8386 27.2251 22.1022 26.7348 21.495 26.1054C20.8978 25.4614 20.4362 24.7039 20.1375 23.8779C19.8092 22.9646 19.6466 21.9999 19.6575 21.0294C19.6575 20.0304 19.824 19.0959 20.151 18.2334C20.4614 17.3997 20.9381 16.6378 21.552 15.9939C22.1595 15.3639 22.8795 14.8674 23.718 14.5029C24.5997 14.1321 25.5485 13.9472 26.505 13.9599C27.636 13.9599 28.6245 14.1789 29.4735 14.6199C30.2968 15.0409 31.0107 15.648 31.5585 16.3929C32.103 17.1324 32.4915 17.9799 32.733 18.9294C32.9745 19.8774 33.0585 20.8674 32.9895 21.9039H23.343C23.3445 22.9599 23.7 23.9604 24.252 24.4974ZM28.47 17.4759C28.0335 16.9929 27.2955 16.7319 26.3925 16.7319C25.806 16.7319 25.3215 16.8294 24.9315 17.0304C24.5749 17.2105 24.2585 17.4611 24.0015 17.7669C23.7758 18.0446 23.6084 18.365 23.5095 18.7089C23.423 18.9957 23.3672 19.2909 23.343 19.5894H29.316C29.229 18.6534 28.908 17.9619 28.47 17.4759ZM22.593 10.4814H30.0765V12.3039H22.593V10.4814Z" fill="black"/>
</svg>
