<svg width="36" height="37" viewBox="0 0 36 37" fill="none" xmlns="http://www.w3.org/2000/svg">
<path d="M30.99 11.116C29.6811 8.84759 27.7973 6.96431 25.5285 5.656C23.229 4.3165 20.7195 3.646 18 3.646C15.2805 3.646 12.771 4.3165 10.47 5.656C8.1705 6.9955 6.3495 8.8165 5.01 11.116C3.6705 13.4155 3 15.9265 3 18.646C3 21.3655 3.669 23.8765 5.01 26.176C6.31848 28.4448 8.20238 30.3281 10.4715 31.636C12.771 32.9755 15.2805 33.646 18 33.646C20.7195 33.646 23.229 32.9755 25.53 31.636C27.7988 30.3277 29.6826 28.4444 30.9915 26.176C32.331 23.8765 33 21.3655 33 18.646C33 15.9265 32.331 13.4155 30.99 11.116ZM18 6.136C21 6.136 23.658 7.096 25.98 9.0145C24.6 10.7755 22.551 12.2245 19.83 13.3645C18.327 10.645 16.698 8.374 14.9385 6.5545C15.9357 6.27877 16.9654 6.13801 18 6.136ZM8.265 10.846C9.36186 9.45314 10.7497 8.31665 12.3315 7.516C14.1495 9.3175 15.819 11.566 17.3415 14.266C14.3415 15.166 11.1705 15.616 7.83 15.616C6.9705 15.616 6.321 15.5965 5.88 15.556C6.33971 13.8376 7.15192 12.2336 8.265 10.846ZM5.49 18.646C5.49 18.565 5.4945 18.466 5.505 18.346C5.5155 18.226 5.52 18.127 5.52 18.046C5.901 18.067 6.4815 18.076 7.2615 18.076C11.2605 18.076 14.9805 17.5255 18.42 16.426C18.7005 16.9855 18.9915 17.6155 19.29 18.316C17.31 18.7555 15.279 19.825 13.1985 21.526C11.118 23.227 9.6 25.0165 8.64 26.896C6.54 24.5155 5.49 21.766 5.49 18.646ZM18 31.156C15.159 31.156 12.609 30.2755 10.3485 28.5175C11.25 26.737 12.6345 25.0345 14.505 23.416C16.374 21.796 18.2295 20.7865 20.07 20.386C21.231 23.5945 22.0162 26.9267 22.41 30.316C21.0043 30.8653 19.5092 31.1501 18 31.156ZM28.62 25.216C27.6382 26.7978 26.3161 28.1409 24.75 29.1475C24.39 26.0275 23.7 22.987 22.6815 20.026C24.0795 19.927 25.329 19.876 26.4315 19.876C27.63 19.876 28.9605 19.927 30.42 20.026C30.2242 21.8707 29.6084 23.6461 28.62 25.216ZM26.76 17.716C25.02 17.716 23.4105 17.7865 21.93 17.926C21.6164 17.1052 21.2762 16.2947 20.91 15.496C24.009 14.137 26.208 12.487 27.5085 10.546C29.3085 12.667 30.2895 15.0865 30.4485 17.806C29.2305 17.746 28.0005 17.716 26.76 17.716Z" fill="black"/>
</svg>
