<svg width="36" height="37" viewBox="0 0 36 37" fill="none" xmlns="http://www.w3.org/2000/svg">
<path d="M14.3895 17.1025C13.5765 17.1025 12.936 17.815 12.936 18.685C12.936 19.552 13.5915 20.2675 14.3895 20.2675C15.201 20.2675 15.8415 19.552 15.8415 18.685C15.858 17.8135 15.201 17.1025 14.3895 17.1025ZM19.5915 17.1025C18.7785 17.1025 18.138 17.815 18.138 18.685C18.138 19.552 18.7935 20.2675 19.5915 20.2675C20.403 20.2675 21.0435 19.552 21.0435 18.685C21.042 17.8135 20.403 17.1025 19.5915 17.1025Z" fill="black"/>
<path d="M26.517 5.146H7.42051C7.036 5.14698 6.65545 5.22369 6.30058 5.37174C5.94572 5.5198 5.62349 5.7363 5.35229 6.00889C5.0811 6.28147 4.86625 6.60481 4.72002 6.96043C4.57378 7.31605 4.49902 7.69699 4.50001 8.0815V27.3475C4.50001 28.972 5.81101 30.283 7.42051 30.283H23.58L22.8225 27.6445L24.648 29.341L26.3715 30.937L29.4375 33.646V8.0815C29.4385 7.69699 29.3637 7.31605 29.2175 6.96043C29.0713 6.60481 28.8564 6.28147 28.5852 6.00889C28.314 5.7363 27.9918 5.5198 27.6369 5.37174C27.2821 5.22369 26.9015 5.14698 26.517 5.146ZM21.015 23.7565C21.015 23.7565 20.502 23.1445 20.076 22.6C21.942 22.072 22.6545 20.905 22.6545 20.905C22.0695 21.289 21.5145 21.562 21.015 21.748C19.1965 22.5091 17.194 22.7167 15.258 22.345C14.5427 22.2045 13.8417 21.9986 13.164 21.73C12.8066 21.5942 12.4592 21.4333 12.1245 21.2485C12.081 21.217 12.039 21.205 11.997 21.1765C11.9745 21.1658 11.9546 21.1505 11.9385 21.1315C11.682 20.9905 11.5395 20.8915 11.5395 20.8915C11.5395 20.8915 12.2235 22.0315 14.034 22.573C13.6065 23.113 13.0785 23.7565 13.0785 23.7565C9.93001 23.656 8.73451 21.5905 8.73451 21.5905C8.73451 17.002 10.7865 13.2835 10.7865 13.2835C12.8385 11.743 14.79 11.7865 14.79 11.7865L14.9325 11.9575C12.3675 12.7 11.184 13.825 11.184 13.825C11.184 13.825 11.499 13.654 12.0255 13.4125C13.5495 12.7435 14.76 12.5575 15.2595 12.514C15.345 12.5005 15.417 12.4855 15.5025 12.4855C17.9733 12.1525 20.4857 12.6221 22.6695 13.825C22.6695 13.825 21.543 12.757 19.1205 12.016L19.32 11.788C19.32 11.788 21.273 11.7445 23.3235 13.285C23.3235 13.285 25.3755 17.0035 25.3755 21.592C25.3755 21.592 24.165 23.656 21.015 23.7565Z" fill="black"/>
</svg>
