<svg width="36" height="37" viewBox="0 0 36 37" fill="none" xmlns="http://www.w3.org/2000/svg">
<path d="M30 5.146H6C5.60218 5.146 5.22064 5.30403 4.93934 5.58534C4.65804 5.86664 4.5 6.24817 4.5 6.646V30.646C4.5 31.0438 4.65804 31.4254 4.93934 31.7067C5.22064 31.988 5.60218 32.146 6 32.146H18.9225V21.706H15.4155V17.6185H18.9225V14.6185C18.9225 11.131 21.0525 9.2305 24.1725 9.2305C25.221 9.2275 26.271 9.2815 27.315 9.391V13.021H25.1625C23.4705 13.021 23.1405 13.828 23.1405 15.0085V17.611H27.186L26.661 21.6985H23.139V32.146H30C30.3978 32.146 30.7794 31.988 31.0607 31.7067C31.342 31.4254 31.5 31.0438 31.5 30.646V6.646C31.5 6.24817 31.342 5.86664 31.0607 5.58534C30.7794 5.30403 30.3978 5.146 30 5.146Z" fill="black"/>
</svg>
