<svg width="36" height="37" viewBox="0 0 36 37" fill="none" xmlns="http://www.w3.org/2000/svg">
<path d="M17.9984 11.7116C16.1589 11.7116 14.3947 12.4423 13.0939 13.7431C11.7932 15.0438 11.0624 16.808 11.0624 18.6476C11.0624 20.4871 11.7932 22.2513 13.0939 23.5521C14.3947 24.8528 16.1589 25.5836 17.9984 25.5836C19.838 25.5836 21.6022 24.8528 22.9029 23.5521C24.2037 22.2513 24.9344 20.4871 24.9344 18.6476C24.9344 16.808 24.2037 15.0438 22.9029 13.7431C21.6022 12.4423 19.838 11.7116 17.9984 11.7116ZM17.9984 23.1521C16.8034 23.1521 15.6572 22.6773 14.8122 21.8323C13.9672 20.9872 13.4924 19.8411 13.4924 18.6461C13.4924 17.451 13.9672 16.3049 14.8122 15.4598C15.6572 14.6148 16.8034 14.1401 17.9984 14.1401C19.1935 14.1401 20.3396 14.6148 21.1847 15.4598C22.0297 16.3049 22.5044 17.451 22.5044 18.6461C22.5044 19.8411 22.0297 20.9872 21.1847 21.8323C20.3396 22.6773 19.1935 23.1521 17.9984 23.1521Z" fill="black"/>
<path d="M25.2089 13.0736C26.102 13.0736 26.8259 12.3496 26.8259 11.4566C26.8259 10.5635 26.102 9.83956 25.2089 9.83956C24.3159 9.83956 23.5919 10.5635 23.5919 11.4566C23.5919 12.3496 24.3159 13.0736 25.2089 13.0736Z" fill="black"/>
<path d="M30.7994 9.81256C30.4522 8.91584 29.9215 8.10149 29.2414 7.42165C28.5613 6.74182 27.7468 6.21147 26.8499 5.86456C25.8004 5.4706 24.6917 5.25758 23.5709 5.23456C22.1264 5.17156 21.6689 5.15356 18.0059 5.15356C14.3429 5.15356 13.8734 5.15356 12.4409 5.23456C11.321 5.2564 10.2131 5.46947 9.16493 5.86456C8.26783 6.21107 7.45308 6.74127 6.77293 7.42116C6.09279 8.10104 5.56227 8.9156 5.21543 9.81256C4.82139 10.862 4.60885 11.9708 4.58693 13.0916C4.52243 14.5346 4.50293 14.9921 4.50293 18.6566C4.50293 22.3196 4.50293 22.7861 4.58693 24.2216C4.60943 25.3436 4.82093 26.4506 5.21543 27.5021C5.56325 28.3987 6.09427 29.2129 6.77458 29.8927C7.45489 30.5725 8.26953 31.1029 9.16643 31.4501C10.2126 31.8599 11.321 32.0881 12.4439 32.1251C13.8884 32.1881 14.3459 32.2076 18.0089 32.2076C21.6719 32.2076 22.1414 32.2076 23.5739 32.1251C24.6946 32.1023 25.8033 31.8898 26.8529 31.4966C27.7496 31.1488 28.5639 30.618 29.2439 29.938C29.9239 29.258 30.4547 28.4437 30.8024 27.5471C31.1969 26.4971 31.4084 25.3901 31.4309 24.2681C31.4954 22.8251 31.5149 22.3676 31.5149 18.7031C31.5149 15.0386 31.5149 14.5736 31.4309 13.1381C31.4135 12.0015 31.1998 10.8764 30.7994 9.81256ZM28.9724 24.1106C28.9628 24.975 28.805 25.8314 28.5059 26.6426C28.2807 27.2259 27.9358 27.7556 27.4935 28.1976C27.0513 28.6396 26.5214 28.9841 25.9379 29.2091C25.1358 29.5067 24.2885 29.6645 23.4329 29.6756C22.0079 29.7416 21.6059 29.7581 17.9519 29.7581C14.2949 29.7581 13.9214 29.7581 12.4694 29.6756C11.6143 29.6651 10.7674 29.5073 9.96593 29.2091C9.38046 28.9855 8.84843 28.6416 8.40426 28.1995C7.9601 27.7574 7.61368 27.227 7.38743 26.6426C7.0926 25.8401 6.9349 24.9938 6.92093 24.1391C6.85643 22.7141 6.84143 22.3121 6.84143 18.6581C6.84143 15.0026 6.84143 14.6291 6.92093 13.1756C6.93063 12.3116 7.08841 11.4557 7.38743 10.6451C7.84493 9.46156 8.78243 8.53006 9.96593 8.07706C10.7678 7.78027 11.6145 7.62251 12.4694 7.61056C13.8959 7.54606 14.2964 7.52806 17.9519 7.52806C21.6074 7.52806 21.9824 7.52806 23.4329 7.61056C24.2885 7.62086 25.136 7.77867 25.9379 8.07706C26.5213 8.30247 27.0511 8.64737 27.4934 9.08961C27.9356 9.53185 28.2805 10.0617 28.5059 10.6451C28.8008 11.4475 28.9585 12.2938 28.9724 13.1486C29.0369 14.5751 29.0534 14.9756 29.0534 18.6311C29.0534 22.2851 29.0534 22.6781 28.9889 24.1121H28.9724V24.1106Z" fill="black"/>
</svg>
