<svg width="20" height="21" viewBox="0 0 20 21" fill="none" xmlns="http://www.w3.org/2000/svg">
<path d="M9.10326 2.62387C9.47008 1.88062 10.5299 1.88062 10.8967 2.62387L12.7063 6.29036C12.8519 6.5855 13.1335 6.79007 13.4592 6.8374L17.5054 7.42535C18.3256 7.54453 18.6531 8.5525 18.0596 9.13104L15.1318 11.985C14.8961 12.2147 14.7885 12.5457 14.8442 12.8701L15.5353 16.9C15.6754 17.7169 14.818 18.3399 14.0844 17.9542L10.4653 16.0515C10.174 15.8984 9.82598 15.8984 9.53466 16.0515L5.91562 17.9542C5.18199 18.3399 4.32456 17.7169 4.46467 16.9L5.15585 12.8701C5.21148 12.5457 5.10393 12.2147 4.86825 11.985L1.94038 9.13104C1.34687 8.5525 1.67438 7.54453 2.4946 7.42535L6.54081 6.8374C6.86652 6.79007 7.14808 6.5855 7.29374 6.29036L9.10326 2.62387Z" fill="#2D2D2D"/>
</svg>
