<svg width="214" height="35" viewBox="0 0 214 35" fill="none" xmlns="http://www.w3.org/2000/svg">
<path fill-rule="evenodd" clip-rule="evenodd" d="M174.109 12.1757V0.52918L174.112 0.526563C174.475 0.408789 179.273 0.372148 179.99 0.471601C180.089 0.82754 180.108 33.4692 180 33.9586H174.13C174.12 33.5809 174.121 33.206 174.122 32.821V32.8197C174.123 32.4581 174.124 32.0875 174.117 31.6973L174.074 31.7379L174.047 31.763L173.994 31.8124C173.934 31.8681 173.889 31.9102 173.847 31.9564C172.481 33.5032 170.759 34.3119 168.702 34.4009C166.713 34.4873 164.802 34.1549 163.028 33.2179C160.903 32.0978 159.502 30.3442 158.62 28.1432C157.937 26.4394 157.649 24.6571 157.589 22.8355C157.519 20.7077 157.736 18.6114 158.44 16.5857C159.154 14.539 160.293 12.7933 162.086 11.5214C163.339 10.6289 164.737 10.0846 166.255 9.86994C166.946 9.7731 167.647 9.68674 168.343 9.69721C170.479 9.73385 172.358 10.4379 173.887 11.9689C173.923 12.0078 173.963 12.0439 174.03 12.1039L174.033 12.1064L174.109 12.1757ZM171.267 28.842C172.586 28.2583 173.447 27.2219 174.01 25.9238L174.007 25.9264C174.549 24.6806 174.719 23.3642 174.745 21.7075C174.736 21.6133 174.727 21.4972 174.717 21.3652V21.3649L174.717 21.3634V21.3631L174.717 21.3616V21.3613L174.717 21.3598C174.69 20.9932 174.653 20.5054 174.575 20.0246C174.345 18.6218 173.852 17.3289 172.858 16.2664C171.178 14.4736 168.43 14.1935 166.435 15.6304C165.404 16.3737 164.753 17.3944 164.355 18.5826C163.74 20.4172 163.693 22.2938 164.033 24.1834C164.229 25.2747 164.616 26.2928 165.279 27.1958C166.684 29.1089 169.121 29.7894 171.267 28.842ZM46.6778 26.2826C48.0728 20.9147 49.4677 15.5442 50.8679 10.1528V10.1502L52.3348 10.1091C53.7103 10.0704 55.0857 10.0318 56.5054 9.99316L56.0867 11.3061C53.6866 18.8326 51.2999 26.3172 48.9155 33.8018H43.7282C42.3833 28.7727 41.0384 23.7516 39.6935 18.7304L39.6925 18.7267C39.6611 18.7294 39.6271 18.732 39.5931 18.732L38.6382 22.3321C37.6111 26.2041 36.5837 30.0774 35.5547 33.9614H30.3727L29.7204 31.9151C27.4144 24.6813 25.1056 17.4389 22.7881 10.1659H28.7265C30.1215 15.539 31.5164 20.9095 32.9114 26.28C32.9227 26.2808 32.9341 26.282 32.9454 26.2832C32.9681 26.2855 32.9908 26.2878 33.0135 26.2878C33.6831 23.6119 34.3534 20.9353 35.0243 18.2562L35.0343 18.2164C35.7052 15.537 36.3769 12.855 37.0492 10.1685H42.54C43.1326 12.5363 43.7251 14.902 44.3174 17.2668L44.3274 17.307L44.335 17.3373L44.3354 17.3389L44.3358 17.3405C45.0821 20.3202 45.828 23.2983 46.5731 26.2773C46.6072 26.28 46.6438 26.2826 46.6778 26.2826ZM78.2409 12.7657L78.2363 12.7834C78.0072 13.6723 77.7784 14.5599 77.5502 15.447C77.3982 16.0397 77.2473 16.6324 77.0964 17.225L77.0956 17.2281L77.0956 17.2283L77.0955 17.2285L77.0954 17.2287L77.0954 17.229C76.7842 18.4511 76.4732 19.6728 76.1526 20.8933C76.0483 21.2899 75.9461 21.6871 75.8439 22.0844L75.8434 22.0865L75.8433 22.0869C75.4817 23.4927 75.1198 24.8999 74.6608 26.2848C73.9881 23.5728 73.3153 20.8601 72.6425 18.1475L72.6309 18.1006C71.9623 15.4047 71.2937 12.7089 70.6251 10.0137H65.1369C63.8335 15.4653 62.538 20.8907 61.2425 26.3188C61.2085 26.3214 61.1771 26.324 61.143 26.3293C60.6022 24.7868 60.0621 23.2436 59.522 21.7004L59.515 21.6806C58.9779 20.146 58.4407 18.6114 57.903 17.0775H57.8035C57.7544 17.201 57.7025 17.3238 57.6506 17.4465L57.6505 17.4468L57.6505 17.4469L57.6505 17.4469L57.6504 17.447L57.6504 17.4471L57.6504 17.4471L57.6504 17.4472L57.6503 17.4472C57.5363 17.7171 57.4221 17.9871 57.3376 18.2657C57.0411 19.2563 56.7505 20.2492 56.4599 21.242L56.4593 21.2441L56.4592 21.2443C56.2011 22.126 55.9431 23.0076 55.681 23.8874C55.6051 24.1439 55.6077 24.3716 55.6888 24.6281C56.3785 26.8183 57.064 29.0112 57.7494 31.2039L57.7497 31.2051L57.7501 31.2062L57.7522 31.2131C57.9996 32.0044 58.2469 32.7956 58.4944 33.5867C58.5252 33.683 58.566 33.7765 58.6041 33.864L58.6042 33.8641L58.6297 33.9231L58.6436 33.9558H63.7969C64.8369 30.0372 65.8722 26.131 66.9065 22.2289L67.8404 18.7054C67.86 18.7054 67.8808 18.7078 67.9012 18.7102L67.9127 18.7115L67.9294 18.7132C68.6822 21.5549 69.4358 24.3957 70.1894 27.2361C70.785 29.4814 71.3805 31.7264 71.9756 33.9715H77.2597C77.579 33.2831 84.8077 10.3461 84.8155 10.0006H78.9609H78.953C78.7155 10.9241 78.478 11.8455 78.2409 12.7657ZM106.025 15.1089C106.18 14.5005 106.335 13.8924 106.491 13.2852V13.293C106.63 12.7563 106.77 12.2202 106.91 11.6829L106.913 11.669C107.057 11.1183 107.201 10.5664 107.344 10.0111H113.257C113.24 10.0745 113.224 10.1355 113.21 10.1945C113.182 10.3085 113.155 10.4154 113.121 10.5188C112.354 12.8913 111.587 15.2644 110.82 17.6376C110.053 20.0107 109.286 22.3838 108.519 24.7563C108.047 26.214 107.575 27.6723 107.104 29.1306C106.632 30.5891 106.16 32.0477 105.688 33.5056L105.668 33.5685L105.643 33.6463L105.643 33.647C105.589 33.8215 105.561 33.9093 105.502 33.9531C105.441 33.9975 105.348 33.9968 105.16 33.9955C105.125 33.9953 105.086 33.995 105.044 33.995H100.744C100.673 33.995 100.602 33.9907 100.516 33.9856C100.468 33.9827 100.416 33.9795 100.356 33.9767C99.0086 28.8889 97.6608 23.8011 96.3103 18.7132L96.2239 18.708C95.3885 21.8549 94.5541 25.0019 93.7183 28.1544C93.2055 30.0883 92.6922 32.0242 92.1777 33.9636H86.9957L86.8822 33.6233L86.8814 33.6207L86.8778 33.6099C86.6535 32.9375 86.4314 32.2715 86.2132 31.6055C85.9917 30.9321 85.7708 30.2585 85.5498 29.5848L85.5481 29.5795C85.0121 27.9457 84.4761 26.3118 83.9336 24.6804C83.8394 24.3952 83.8341 24.1413 83.9283 23.8534C84.2293 22.9243 84.5257 21.9932 84.8221 21.0622C85.1185 20.1311 85.4149 19.2 85.7159 18.2709C85.8467 17.8653 86.03 17.4779 86.2864 17.0775L89.5291 26.3345L89.5364 26.3339C89.5677 26.3315 89.5968 26.3293 89.626 26.3293C90.3778 23.1795 91.1305 20.0298 91.8835 16.8786L91.9002 16.8089C92.4419 14.5422 92.9837 12.2747 93.5256 10.0058H99.0086L103.044 26.2743C103.37 25.446 103.587 24.5914 103.804 23.7378C103.861 23.5153 103.918 23.2928 103.976 23.0709C104.164 22.3578 104.348 21.6436 104.531 20.9298C104.629 20.5511 104.726 20.1724 104.824 19.7941C105.101 18.7185 105.379 17.6428 105.654 16.5645C105.778 16.0792 105.902 15.594 106.025 15.1089ZM19.7757 15.9524C18.9984 13.0944 17.2292 11.1681 14.3869 10.2705C13.429 9.96686 12.4423 9.82553 11.4399 9.74178C9.80157 9.60307 8.19723 9.72346 6.63739 10.2521C4.02281 11.1394 2.17769 12.8274 1.30093 15.4891C1.24003 15.6753 1.19648 15.8673 1.15337 16.0573C1.13163 16.1531 1.11 16.2485 1.08632 16.3423C1.84531 16.6041 5.62191 17.3944 5.96738 17.3657C5.99126 17.3142 6.01493 17.2621 6.03874 17.2096L6.03877 17.2095L6.03879 17.2095L6.03882 17.2094L6.03885 17.2094L6.03887 17.2093L6.03889 17.2093C6.09856 17.0778 6.15918 16.9443 6.22649 16.8134C6.68973 15.9314 7.37282 15.2876 8.33333 14.9866C9.71782 14.5522 11.0997 14.6124 12.4449 15.1358C13.3636 15.4944 13.9708 16.1853 14.1461 17.1641C14.2257 17.6143 14.2515 18.0745 14.2771 18.5308C14.2886 18.7351 14.3 18.9386 14.3162 19.1401C14.2651 19.1641 14.2302 19.1823 14.2049 19.1954C14.1667 19.2153 14.1503 19.2239 14.133 19.2239C13.9578 19.2317 13.7826 19.2343 13.6074 19.2369L13.6072 19.237L13.607 19.237C13.0785 19.2459 12.5499 19.2418 12.0213 19.2377C10.7043 19.2275 9.38791 19.2173 8.07684 19.4097C6.50391 19.64 5.00949 20.0954 3.65117 20.9381C2.09394 21.9039 0.971163 23.2177 0.44249 24.9974C0.0917859 26.1804 0.065614 27.3764 0.295927 28.5829C0.80628 31.2734 2.32425 33.0871 4.95976 33.9168C6.2893 34.3355 7.65024 34.3722 9.01903 34.1733C11.241 33.8514 13.0626 32.8045 14.5047 31.0928C14.545 31.0451 14.5699 30.9833 14.5948 30.9218C14.6054 30.8955 14.6159 30.8693 14.6277 30.8442C14.6695 30.8704 14.714 30.8965 14.7559 30.9201C14.9517 31.8753 15.1474 32.8279 15.3431 33.7805L15.3433 33.7814L15.3448 33.7885H20.1997L20.2041 33.7191L20.2083 33.6566C20.2162 33.5405 20.2232 33.4368 20.2232 33.3331C20.2232 31.816 20.2235 30.299 20.2238 28.7822V28.7819V28.7817V28.7814V28.7811V28.7808C20.2244 25.7479 20.225 22.7155 20.2232 19.6819C20.2232 18.423 20.1081 17.172 19.7757 15.9498V15.9524ZM13.1568 27.4052C12.2931 28.3814 11.1834 28.9258 9.91149 29.1561C9.31477 29.2634 8.71544 29.3236 8.11872 29.1509C7.0352 28.8368 6.35735 27.8789 6.41492 26.7483C6.48559 25.369 7.32832 24.385 8.72067 24.0971C9.1054 24.0159 9.50583 23.9819 9.90102 23.9793C10.7909 23.9706 11.6807 23.9735 12.5706 23.9764C13.0155 23.9779 13.4604 23.9793 13.9053 23.9793C13.977 23.9793 14.0488 23.9863 14.1283 23.9941C14.1678 23.998 14.2091 24.002 14.2534 24.0055C14.3529 25.3088 14.01 26.4421 13.1594 27.4078L13.1568 27.4052ZM129.399 10.4641C131.993 11.456 133.55 13.3639 134.252 16.0125L134.254 16.0099C134.558 17.1536 134.678 18.3235 134.678 19.5038V33.3462C134.678 33.4484 134.671 33.5521 134.663 33.6677L134.663 33.6689L134.663 33.6708C134.66 33.7111 134.657 33.7528 134.655 33.7963H129.81C129.611 32.8201 129.415 31.8622 129.206 30.8415C129.19 30.8587 129.175 30.8746 129.16 30.8896C129.135 30.9168 129.112 30.9407 129.091 30.9624L129.09 30.9632L129.089 30.9636C129.038 31.0171 128.999 31.0574 128.962 31.1006C127.52 32.8175 125.694 33.8565 123.474 34.1732C121.742 34.4218 120.043 34.2962 118.436 33.5372C116.382 32.5636 115.209 30.9069 114.788 28.7085C114.513 27.2821 114.547 25.8558 115.078 24.4791C115.633 23.0344 116.607 21.9274 117.889 21.0794C119.111 20.2707 120.467 19.7865 121.901 19.5143C122.998 19.3076 124.107 19.2317 125.225 19.2369C125.986 19.2404 126.745 19.2392 127.519 19.2381H127.519H127.519H127.519H127.519C127.911 19.2375 128.307 19.2369 128.709 19.2369L128.713 19.1297C128.76 18.1284 128.804 17.1558 128.264 16.2638C127.892 15.6461 127.337 15.2588 126.672 15.0363C125.531 14.6568 124.359 14.5992 123.189 14.8636C121.998 15.1331 121.145 15.8529 120.619 16.9547C120.596 16.9994 120.576 17.0451 120.555 17.0912C120.544 17.118 120.532 17.145 120.519 17.1719C120.485 17.2426 120.451 17.3133 120.391 17.4389C119.511 17.2466 118.632 17.0551 117.748 16.8626L117.746 16.8622L117.742 16.8614L117.736 16.8601L117.729 16.8585C117.007 16.7013 116.282 16.5435 115.552 16.3841C115.675 15.599 115.926 14.9028 116.274 14.2433C117.381 12.1417 119.137 10.8383 121.383 10.1605C122.862 9.71292 124.372 9.61347 125.913 9.74171C127.109 9.84378 128.279 10.0348 129.399 10.4641ZM123.241 29.2503C124.147 29.2712 125.008 29.0801 125.83 28.7085H125.832C127.808 27.8134 128.873 26.0835 128.709 24.0342C128.695 24.0287 128.682 24.0234 128.671 24.0184L128.654 24.0105C128.627 23.9982 128.609 23.9897 128.591 23.9897C128.144 23.9905 127.697 23.9888 127.251 23.9872L127.25 23.9872H127.25C126.153 23.9831 125.056 23.979 123.961 24.0106C123.231 24.0316 122.516 24.22 121.885 24.6335C121.014 25.2093 120.648 26.0573 120.747 27.0492C120.867 28.2819 121.995 29.2241 123.241 29.2503ZM200.435 21.6892C199.417 20.8727 198.253 20.3335 197.038 19.8886C196.557 19.713 196.072 19.546 195.587 19.379L195.587 19.3789C194.901 19.1425 194.215 18.9061 193.539 18.6454C193.089 18.4701 192.641 18.2162 192.277 17.9021C191.259 17.028 191.432 15.5545 192.592 14.8924C193.06 14.6254 193.578 14.5129 194.107 14.5626C195.499 14.6935 196.659 15.2902 197.567 16.3606C197.616 16.4174 197.665 16.4733 197.719 16.5356L197.725 16.5417L197.726 16.5433L197.836 16.6694C198.42 16.137 198.999 15.6091 199.578 15.0813L199.582 15.0776L199.6 15.0611C200.172 14.5397 200.743 14.0182 201.32 13.4922C201.311 13.4787 201.302 13.4654 201.293 13.4522C201.276 13.4258 201.259 13.4 201.243 13.3747L201.194 13.2997C201.123 13.1903 201.058 13.0897 200.987 12.9923C199.161 10.4353 195.41 9.06389 192.872 9.4617C190.576 9.82287 188.734 10.8567 187.464 12.8196C185.776 15.4263 185.85 19.831 189.668 21.9379C190.494 22.3935 191.376 22.7559 192.251 23.1153L192.264 23.1208C192.72 23.3073 193.181 23.4763 193.643 23.6454C194.18 23.8418 194.717 24.0383 195.243 24.2619C195.719 24.4634 196.169 24.7566 196.578 25.0759C197.09 25.4763 197.263 26.0521 197.187 26.6985C197.062 27.7821 196.462 28.4835 195.423 28.7713C193.835 29.211 192.4 28.8865 191.157 27.8004C190.461 27.1932 189.982 26.4263 189.59 25.6019C189.522 25.4576 189.452 25.3133 189.374 25.1524L189.31 25.0183L187.742 25.8766C186.701 26.4469 185.66 27.0172 184.591 27.6015C184.646 27.7199 184.697 27.8347 184.747 27.9462C184.848 28.1722 184.944 28.3849 185.054 28.5881C187.281 32.6867 191.822 34.7883 196.457 33.6917C200.103 32.828 202.424 29.9569 202.532 26.2798C202.587 24.4085 201.909 22.8696 200.435 21.6918V21.6892ZM145.909 10.0403V13.7096V13.7122C148.379 10.2287 151.604 8.97505 155.789 10.1292C155.546 11.3869 155.305 12.6238 155.065 13.8567L155.059 13.8897L155.055 13.9102L154.731 15.5756C154.576 15.5121 154.427 15.4446 154.282 15.3787L154.281 15.3781L154.28 15.378C153.971 15.2375 153.677 15.1042 153.368 15.0312C151.583 14.6125 149.994 15.0391 148.644 16.2744C147.654 17.18 147.081 18.3446 146.678 19.6035C146.134 21.2994 145.94 23.0503 145.927 24.8222C145.912 26.8427 145.915 28.8619 145.917 30.8817V30.882V30.8874C145.918 31.6651 145.919 32.4428 145.919 33.2207V33.7834C144.712 33.8783 143.511 33.8981 142.3 33.918C141.54 33.9306 140.776 33.9432 140.004 33.9745V10.0743C140.337 9.96435 145.218 9.93295 145.909 10.0403ZM213.998 30.1637L214 30.1687L214 30.169C214 30.093 214 30.0173 214 29.9416L214 29.9414L214 29.9384C213.999 29.7886 213.998 29.6391 214 29.4885L214 29.4882C213.998 29.6399 213.999 29.7904 214 29.9414" fill="#2D2D2D"/>
</svg>
