<svg width="54" height="35" viewBox="0 0 54 35" fill="none" xmlns="http://www.w3.org/2000/svg">
<path d="M21.6662 15.6144C21.6662 15.6144 26.7466 15.2372 26.7466 9.27967C26.7466 3.32167 22.5902 0.414062 17.3252 0.414062H0V33.7082H17.3252C17.3252 33.7082 27.9016 34.0423 27.9016 23.8813C27.9016 23.8814 28.3627 15.6144 21.6662 15.6144ZM16.0781 6.33172H17.3252C17.3252 6.33172 19.6802 6.33172 19.6802 9.79583C19.6802 13.2595 18.2952 13.7617 16.7242 13.7617H7.63369V6.33172H16.0781ZM16.8356 27.7907H7.63369V18.8933H17.3252C17.3252 18.8933 20.8352 18.8473 20.8352 23.4657C20.8352 27.36 18.2135 27.7613 16.8356 27.7907ZM42.007 8.88507C29.2031 8.88507 29.2145 21.6777 29.2145 21.6777C29.2145 21.6777 28.336 34.4046 42.007 34.4046C42.007 34.4046 53.3994 35.0555 53.3994 25.5512H47.5404C47.5404 25.5512 47.7358 29.1303 42.2024 29.1303C42.2024 29.1303 36.3425 29.5231 36.3425 23.3379H53.5948C53.5948 23.3378 55.4825 8.88507 42.007 8.88507ZM36.2781 18.8933C36.2781 18.8933 36.9936 13.7616 42.1371 13.7616C47.2797 13.7616 47.2153 18.8933 47.2153 18.8933H36.2781ZM48.5801 6.47544H34.8437V2.37551H48.5801V6.47544Z" fill="#2D2D2D"/>
</svg>
