<svg width="104" height="35" viewBox="0 0 104 35" fill="none" xmlns="http://www.w3.org/2000/svg">
<path fill-rule="evenodd" clip-rule="evenodd" d="M13.5794 12.4918V16.0964L22.1943 16.0925C21.93 18.0806 21.2596 19.5362 20.2407 20.5551C18.9843 21.8116 17.023 23.1944 13.5794 23.1944C8.27021 23.1944 4.11788 18.9157 4.11788 13.6065C4.11788 8.29736 8.27021 4.01862 13.5794 4.01862C16.4446 4.01862 18.5361 5.1448 20.0798 6.59276L22.6233 4.04926C20.4705 1.99225 17.6053 0.414062 13.5832 0.414062C6.31279 0.414062 0.199219 6.33611 0.199219 13.6065C0.199219 20.8769 6.31279 26.799 13.5832 26.799C17.5057 26.799 20.4667 25.5119 22.7842 23.0986C25.1668 20.716 25.9061 17.372 25.9061 14.6676C25.9061 13.8632 25.8448 13.12 25.7261 12.4918H13.5794ZM86.2487 26.2816V1.38298H82.6096V26.2816H86.2487ZM35.8771 26.8027C40.5733 26.8027 44.4001 23.1982 44.4001 18.3066C44.4001 13.3805 40.5733 9.81037 35.8771 9.81037C31.1808 9.81037 27.3541 13.3805 27.3541 18.3066C27.3541 23.1982 31.1808 26.8027 35.8771 26.8027ZM35.8771 13.1583C38.4512 13.1583 40.6691 15.2498 40.6691 18.3066C40.6691 21.3289 38.4512 23.4548 35.8771 23.4548C33.3029 23.4548 31.085 21.3327 31.085 18.3066C31.085 15.2498 33.3029 13.1583 35.8771 13.1583ZM54.2639 26.8027C58.9601 26.8027 62.7869 23.1982 62.7869 18.3066C62.7869 13.3805 58.9601 9.81037 54.2639 9.81037C49.5676 9.81037 45.7409 13.3843 45.7409 18.3066C45.7409 23.1982 49.5676 26.8027 54.2639 26.8027ZM54.2639 13.1583C56.838 13.1583 59.0559 15.2498 59.0559 18.3066C59.0559 21.3289 56.838 23.4548 54.2639 23.4548C51.6897 23.4548 49.4718 21.3327 49.4718 18.3066C49.4718 15.2498 51.6897 13.1583 54.2639 13.1583ZM80.4074 10.3275V25.577C80.4074 31.8514 76.7071 34.4141 72.3326 34.4141C68.2147 34.4141 65.7364 31.6599 64.8017 29.4075L68.05 28.0553C68.6284 29.4382 70.0457 31.07 72.3288 31.07C75.1289 31.07 76.8641 29.3424 76.8641 26.0903V24.8683H76.7339C75.8988 25.8987 74.29 26.7989 72.2598 26.7989C68.0117 26.7989 64.1199 23.0986 64.1199 18.3372C64.1199 13.5413 68.0117 9.81037 72.2598 9.81037C74.2862 9.81037 75.895 10.7106 76.7339 11.7103H76.8641V10.3275H80.4074ZM77.1284 18.3372C77.1284 15.3455 75.1327 13.1583 72.5931 13.1583C70.0189 13.1583 67.8623 15.3455 67.8623 18.3372C67.8623 21.2982 70.0189 23.4548 72.5931 23.4548C75.1327 23.4548 77.1284 21.2982 77.1284 18.3372ZM100.43 21.1028L103.326 23.0334C102.391 24.4162 100.139 26.7988 96.2468 26.7988C91.4203 26.7988 87.8157 23.0679 87.8157 18.3026C87.8157 13.2501 91.4509 9.80646 95.8292 9.80646C100.238 9.80646 102.395 13.3153 103.1 15.2114L103.487 16.1767L92.1289 20.8806C92.9985 22.5852 94.3507 23.4548 96.2468 23.4548C98.1467 23.4548 99.4644 22.5201 100.43 21.1028ZM91.516 18.046L99.1082 14.8934C98.6907 13.8324 97.4342 13.0931 95.9557 13.0931C94.0595 13.0931 91.4203 14.767 91.516 18.046Z" fill="#2D2D2D"/>
</svg>
