<svg width="39" height="47" viewBox="0 0 39 47" fill="none" xmlns="http://www.w3.org/2000/svg">
<path fill-rule="evenodd" clip-rule="evenodd" d="M27.9607 0.0238611C25.9839 0.214361 23.6632 1.3593 22.035 2.94736C20.2931 4.64628 19.116 7.00795 18.9096 9.21795C18.878 9.55733 18.8925 10.3649 18.9344 10.5905L18.9627 10.743L19.1589 10.7708C19.4452 10.8115 20.1498 10.787 20.5117 10.7239C21.8928 10.4831 23.3312 9.80336 24.6167 8.78394C25.0054 8.47571 25.7241 7.74832 26.0779 7.30502C26.5929 6.65981 27.0302 5.97031 27.3832 5.2468C27.8974 4.19306 28.202 3.19622 28.3686 2.02226C28.4167 1.68297 28.4389 0.625799 28.4036 0.35281C28.3549 -0.0241183 28.3641 -0.00209532 28.2561 0.00142652C28.204 0.00311883 28.0711 0.013227 27.9607 0.0238611ZM27.0751 11.3344C26.5429 11.3658 25.821 11.4822 25.1884 11.6385C24.3557 11.8443 23.7308 12.0567 22.2612 12.6334C21.0689 13.1013 20.6991 13.2316 20.2194 13.353C19.6109 13.5071 19.0772 13.5032 18.4192 13.3401C17.9533 13.2246 17.6128 13.1035 16.3883 12.618C15.2099 12.1508 14.7803 11.9952 14.2227 11.8339C12.8649 11.4412 11.7814 11.3539 10.415 11.5269C8.94169 11.7134 7.51618 12.2017 6.22993 12.9604C3.72927 14.4353 1.86106 16.8175 0.855167 19.8138C0.112218 22.0269 -0.147895 24.5356 0.0797438 27.2926C0.288196 29.817 0.905319 32.4966 1.8626 35.0338C2.47707 36.6624 3.30806 38.378 4.13339 39.722C4.88795 40.9507 6.40879 43.0136 7.35365 44.09C9.11117 46.0922 10.7412 46.945 12.5625 46.815C13.5215 46.7465 14.1295 46.5756 15.6057 45.9597C16.558 45.5623 16.9557 45.4137 17.4482 45.2713C18.9375 44.8406 20.6203 44.8028 22.0782 45.1671C22.6884 45.3196 23.0396 45.4466 24.0793 45.8908C25.3689 46.4417 25.8629 46.5974 26.6749 46.7089C27.0355 46.7584 27.8085 46.7776 28.1157 46.7447C29.5349 46.5927 30.8299 45.8881 32.1183 44.5669C32.9046 43.7607 33.7 42.7472 34.8437 41.0941C36.1045 39.2717 37.2273 37.0471 37.9254 34.9881C38.1375 34.3623 38.1388 34.3564 38.0708 34.3354C37.8406 34.2642 36.9598 33.7807 36.4972 33.4717C33.8543 31.7062 32.2586 29.1609 31.9137 26.1606C31.6269 23.665 32.1773 21.2914 33.5127 19.2656C34.2868 18.0912 35.4054 16.9715 36.6058 16.1691C36.7599 16.0662 36.886 15.9708 36.886 15.9573C36.886 15.9185 36.572 15.4984 36.2995 15.1723C34.3723 12.867 31.6486 11.5423 28.4244 11.3422C28.0773 11.3206 27.3771 11.3166 27.0751 11.3344Z" fill="#2D2D2D"/>
</svg>
