<svg width="140" height="35" viewBox="0 0 140 35" fill="none" xmlns="http://www.w3.org/2000/svg">
<path d="M139.417 27.2544C133.61 37.1037 124.409 34.246 121.643 32.0075C120.468 32.8067 118.405 34.5556 115.656 34.3506C109.798 33.9322 107.706 25.5641 107.706 25.5641C106.839 25.903 105.924 26.1075 104.995 26.1708C104.995 28.6268 102.861 34.4887 97.1374 34.4133C90.7149 34.3297 89.4053 24.7566 89.4053 24.7566C89.4053 24.7566 88.7651 25.6436 86.3342 26.5264C86.4555 24.6394 86.3677 34.1247 78.669 34.2627C72.5812 34.3715 70.9369 24.606 70.9369 24.606C70.066 25.3871 68.9879 25.9 67.8324 26.0829C67.9621 24.1666 67.7529 34.292 60.05 34.2585C54.8451 34.2376 53.0669 28.2419 53.2049 27.4093C53.3807 26.3507 51.4476 34.405 46.3891 34.2795C44.2971 34.2167 42.749 32.7063 41.7867 30.6937C40.4812 32.1874 38.5817 34.2795 36.4562 34.2795C32.6362 34.2795 30.9542 31.0829 31.2387 21.9616C31.2638 20.878 31.1843 20.4554 30.109 20.288C29.4646 20.1792 28.8036 19.9784 28.1007 19.8696C27.8747 20.6186 25.9752 34.0326 19.4355 34.2878C17.2431 34.3715 16.0422 32.472 15.0548 31.0619C13.5444 33.0619 11.5486 34.3506 8.71178 34.3506C3.90013 34.3506 0.624023 30.4594 0.624023 25.6645C0.624023 20.8696 3.90013 16.9784 8.71178 16.9784C9.35 16.9771 9.98286 17.0949 10.5779 17.3257C8.97956 2.7736 12.7536 0.501659 16.0548 0.501659C19.2263 0.501659 24.6404 7.85721 17.0213 26.5222C18.6949 32.087 22.3601 31.7732 24.1133 20.3173C24.4689 17.9868 23.5149 14.8446 25.0003 14.4052C27.7115 13.6019 28.0002 16.0077 29.2722 16.4094C30.6153 16.8278 31.4019 16.7901 32.6905 17.0621C34.8955 17.4805 35.7575 18.6772 35.4897 21.3173C35.1675 24.6645 34.6027 29.518 36.3265 30.1038C37.5817 30.5222 39.8327 27.9616 40.2302 26.5515C40.5466 25.6063 40.72 24.6192 40.7448 23.6227C40.7252 21.778 40.892 19.936 41.2427 18.1249C41.4059 17.4805 41.5858 17.0496 42.318 17.0203C42.9205 17.0203 44.0209 16.8236 44.5021 17.2002C45.1465 17.6855 45.067 18.1793 44.9916 19.4721C44.2427 37.9363 50.0125 28.7189 51.7405 21.3382C51.1255 12.9952 51.548 0.643918 56.7614 0.41798C59.481 0.309194 60.6818 2.48908 60.8157 4.11667C61.1881 8.71912 59.0961 16.3174 56.3388 21.4344C54.7656 31.8946 63.2257 33.9406 64.5772 25.6185C62.3638 24.5641 59.9747 20.3047 61.9161 18.2295C63.0081 17.0663 67.5562 18.7399 67.6315 22.3884C69.8616 21.7901 70.142 20.5307 70.1922 20.7399C69.5771 12.3969 70.1461 0.65647 75.3762 0.430531C78.0958 0.321746 79.2966 2.50163 79.4305 4.12923C79.8029 8.73168 77.7109 16.3299 74.9536 21.447C73.3804 31.9071 81.8405 33.9531 83.192 25.631C81.5518 25.313 78.0916 20.7817 80.0874 18.242C81.1544 16.8822 85.6857 19.7064 86.1919 22.5223C88.3342 21.9156 88.6271 20.6981 88.6563 20.9031C88.0413 12.5601 88.6103 0.819647 93.8404 0.593709C96.56 0.484924 97.7608 2.66481 97.8947 4.2924C98.2671 8.89485 96.1751 16.4931 93.4178 21.6102C91.8446 32.0703 100.305 34.1163 101.656 25.7942C99.4052 25.4177 96.2169 20.6353 98.7775 18.1876C99.8068 17.2085 103.74 19.7483 104.66 22.6436C105.436 22.6065 106.198 22.4249 106.907 22.1081C104.865 12.3132 106.384 0.556056 112.012 0.459823C115.053 0.40543 118.024 2.10415 116.719 11.422C115.464 20.3131 110.995 24.0453 111.008 24.1039C111.267 25.1708 113.564 34.0828 119.351 29.3799C119.012 28.675 118.755 27.9338 118.585 27.1708C117.627 22.2838 119.509 16.7609 124.627 15.8738C127.555 15.3634 130.321 16.7901 130.76 20.0077C131.48 25.2754 126.723 29.0912 124.903 29.9197C124.091 29.4594 132.246 34.6895 137.087 24.2085C137.367 23.6101 137.706 23.6604 138.145 23.97C138.472 24.1708 140.237 25.8402 139.417 27.2544ZM12.2222 24.3716C11.9753 23.6352 11.4691 22.0118 11.2933 21.3089C10.3101 20.4721 9.61972 20.3131 8.36451 20.3131C5.55701 20.3131 3.90431 22.9072 3.90431 25.7063C3.90431 28.5055 5.70345 31.0996 8.50676 31.0996C10.9377 31.0996 12.7912 29.426 13.3561 27.1038C12.9209 26.2084 12.5276 25.3716 12.2013 24.3716H12.2222ZM15.9878 4.35517C14.0172 4.35517 13.3477 9.06222 13.4774 13.0747C13.6007 15.8321 14.1468 18.5542 15.0966 21.1457C15.2263 21.3215 15.2012 21.2085 15.3184 21.3926C18.7326 13.8864 17.3142 4.35098 15.9753 4.35098L15.9878 4.35517ZM57.0584 4.50161C54.5103 4.20872 54.5271 14.8278 54.8409 17.2086C56.163 15.0914 58.4643 5.07482 57.0584 4.50161ZM75.6732 4.50161C73.1252 4.20872 73.1419 14.8278 73.4557 17.2086C74.7695 15.0914 77.0707 5.07064 75.6649 4.50161H75.6732ZM94.1416 4.64805C91.5935 4.35517 91.6103 14.9743 91.9241 17.3592C93.2462 15.2421 95.5475 5.22545 94.1416 4.64805ZM112.313 3.87819C108.342 4.67734 109.267 17.9198 109.869 20.242C114.547 13.8153 114.643 3.6397 112.313 3.87819ZM127.2 20.4261C127.068 20.038 126.806 19.7077 126.458 19.4917C126.11 19.2757 125.698 19.1874 125.292 19.242C123.296 19.514 121.363 21.9993 122.112 25.7775C122.23 26.3316 122.425 26.8666 122.689 27.3674C127.141 24.3758 127.518 22.0244 127.187 20.4261H127.2ZM43.1005 14.104C42.3848 14.1025 41.6954 13.835 41.1661 13.3533C40.6368 12.8717 40.3056 12.2104 40.2369 11.4981C40.1681 10.7858 40.3668 10.0734 40.7941 9.49948C41.2215 8.92551 41.8471 8.53103 42.5492 8.39273C43.2513 8.25444 43.9798 8.38222 44.5929 8.75123C45.206 9.12025 45.66 9.70411 45.8665 10.3893C46.073 11.0744 46.0173 11.8119 45.7102 12.4583C45.4031 13.1046 44.8666 13.6137 44.205 13.8864C43.8547 14.0308 43.4794 14.1048 43.1005 14.104Z" fill="#2D2D2D"/>
</svg>
