<svg width="49" height="30" viewBox="0 0 49 30" fill="none" xmlns="http://www.w3.org/2000/svg">
<path d="M1.29 21V6.25H3.93V20.21L2.74 18.82H9.52V21H1.29ZM16.8525 21.21C15.7325 21.21 14.7458 20.9767 13.8925 20.51C13.0392 20.0367 12.3692 19.3833 11.8825 18.55C11.4025 17.7167 11.1625 16.7633 11.1625 15.69C11.1625 14.61 11.4025 13.66 11.8825 12.84C12.3692 12.0133 13.0392 11.3667 13.8925 10.9C14.7458 10.4333 15.7325 10.2 16.8525 10.2C17.9725 10.2 18.9592 10.4333 19.8125 10.9C20.6658 11.3667 21.3325 12.0133 21.8125 12.84C22.2992 13.66 22.5425 14.61 22.5425 15.69C22.5425 16.7633 22.2992 17.7167 21.8125 18.55C21.3325 19.3833 20.6658 20.0367 19.8125 20.51C18.9592 20.9767 17.9725 21.21 16.8525 21.21ZM16.8525 19.06C17.4592 19.06 17.9892 18.92 18.4425 18.64C18.8958 18.36 19.2492 17.97 19.5025 17.47C19.7558 16.9633 19.8825 16.37 19.8825 15.69C19.8825 15.01 19.7558 14.4233 19.5025 13.93C19.2492 13.43 18.8958 13.0433 18.4425 12.77C17.9892 12.4967 17.4592 12.36 16.8525 12.36C16.2525 12.36 15.7225 12.4967 15.2625 12.77C14.8092 13.0433 14.4558 13.43 14.2025 13.93C13.9492 14.4233 13.8225 15.01 13.8225 15.69C13.8225 16.37 13.9492 16.9633 14.2025 17.47C14.4558 17.97 14.8092 18.36 15.2625 18.64C15.7225 18.92 16.2525 19.06 16.8525 19.06ZM31.8584 19.95C32.4851 20.01 33.0351 20.1267 33.5084 20.3C33.9818 20.4733 34.3518 20.73 34.6184 21.07C34.8851 21.4167 35.0184 21.8767 35.0184 22.45C35.0184 23.09 34.8018 23.6433 34.3684 24.11C33.9351 24.5767 33.2984 24.9367 32.4584 25.19C31.6251 25.4433 30.5984 25.57 29.3784 25.57C27.6051 25.57 26.2418 25.3133 25.2884 24.8C24.3351 24.2933 23.8584 23.6033 23.8584 22.73C23.8584 22.4833 23.8884 22.26 23.9484 22.06C24.0084 21.86 24.0818 21.6933 24.1684 21.56L26.5784 21.91C26.5384 21.9633 26.4984 22.0467 26.4584 22.16C26.4184 22.28 26.3984 22.4233 26.3984 22.59C26.3984 23.0033 26.6751 23.3 27.2284 23.48C27.7884 23.6667 28.5318 23.76 29.4584 23.76C30.1384 23.76 30.7051 23.7133 31.1584 23.62C31.6184 23.5267 31.9651 23.3933 32.1984 23.22C32.4384 23.0467 32.5584 22.8433 32.5584 22.61C32.5584 22.2633 32.4018 22.04 32.0884 21.94C31.7751 21.84 31.4018 21.7733 30.9684 21.74L26.9384 21.37C26.2184 21.2967 25.6251 21.0833 25.1584 20.73C24.6984 20.3767 24.4684 19.91 24.4684 19.33C24.4684 18.9767 24.5618 18.65 24.7484 18.35C24.9418 18.05 25.1618 17.8 25.4084 17.6C25.6551 17.3933 25.8651 17.2667 26.0384 17.22L27.5384 17.96C27.3984 17.98 27.2318 18.07 27.0384 18.23C26.8518 18.39 26.7584 18.58 26.7584 18.8C26.7584 19.0067 26.8518 19.18 27.0384 19.32C27.2251 19.4533 27.5851 19.5467 28.1184 19.6L31.8584 19.95ZM33.0484 10.38H35.4084L34.4484 14.5C34.2684 15.2733 33.9784 15.9667 33.5784 16.58C33.1784 17.1933 32.6451 17.6767 31.9784 18.03C31.3118 18.3833 30.4718 18.56 29.4584 18.56C28.4051 18.56 27.4951 18.39 26.7284 18.05C25.9684 17.7033 25.3818 17.22 24.9684 16.6C24.5551 15.9733 24.3484 15.2533 24.3484 14.44C24.3484 13.6067 24.5584 12.8733 24.9784 12.24C25.4051 11.6 25.9884 11.1 26.7284 10.74C27.4751 10.38 28.3184 10.2 29.2584 10.2C30.0184 10.2 30.7018 10.3267 31.3084 10.58C31.9151 10.8267 32.3984 11.15 32.7584 11.55C33.1251 11.95 33.3218 12.3767 33.3484 12.83L32.7584 12.94L33.0484 10.38ZM29.4484 16.53C29.9618 16.53 30.4051 16.4467 30.7784 16.28C31.1518 16.1133 31.4418 15.8733 31.6484 15.56C31.8551 15.24 31.9584 14.8533 31.9584 14.4C31.9584 13.9533 31.8551 13.57 31.6484 13.25C31.4418 12.93 31.1518 12.6867 30.7784 12.52C30.4051 12.3467 29.9651 12.26 29.4584 12.26C28.9651 12.26 28.5284 12.3467 28.1484 12.52C27.7684 12.6933 27.4684 12.9433 27.2484 13.27C27.0351 13.59 26.9284 13.9733 26.9284 14.42C26.9284 14.8667 27.0318 15.25 27.2384 15.57C27.4518 15.8833 27.7451 16.1233 28.1184 16.29C28.4984 16.45 28.9418 16.53 29.4484 16.53ZM41.9697 21.21C40.8497 21.21 39.863 20.9767 39.0097 20.51C38.1564 20.0367 37.4864 19.3833 36.9997 18.55C36.5197 17.7167 36.2797 16.7633 36.2797 15.69C36.2797 14.61 36.5197 13.66 36.9997 12.84C37.4864 12.0133 38.1564 11.3667 39.0097 10.9C39.863 10.4333 40.8497 10.2 41.9697 10.2C43.0897 10.2 44.0764 10.4333 44.9297 10.9C45.783 11.3667 46.4497 12.0133 46.9297 12.84C47.4164 13.66 47.6597 14.61 47.6597 15.69C47.6597 16.7633 47.4164 17.7167 46.9297 18.55C46.4497 19.3833 45.783 20.0367 44.9297 20.51C44.0764 20.9767 43.0897 21.21 41.9697 21.21ZM41.9697 19.06C42.5764 19.06 43.1064 18.92 43.5597 18.64C44.013 18.36 44.3664 17.97 44.6197 17.47C44.873 16.9633 44.9997 16.37 44.9997 15.69C44.9997 15.01 44.873 14.4233 44.6197 13.93C44.3664 13.43 44.013 13.0433 43.5597 12.77C43.1064 12.4967 42.5764 12.36 41.9697 12.36C41.3697 12.36 40.8397 12.4967 40.3797 12.77C39.9264 13.0433 39.573 13.43 39.3197 13.93C39.0664 14.4233 38.9397 15.01 38.9397 15.69C38.9397 16.37 39.0664 16.9633 39.3197 17.47C39.573 17.97 39.9264 18.36 40.3797 18.64C40.8397 18.92 41.3697 19.06 41.9697 19.06Z" fill="#2D2D2D"/>
</svg>
